# xmcd
#
# Track frame offsets:
#	150
#	16287
#	33055
#	46740
#	60954
#
# Disc length: 1014 seconds
# Revision: 0
# Processed by: cddbd v1.5.2PL0 Copyright (c) Steve Scherf et al.
# Submitted via: dBpowerAMP V12.0
#
DISCID=2a03f405
DTITLE=Megan O'Neill - Coming Home
DYEAR=2015
DGENRE=Americana
TTITLE0=Coming Home
TTITLE1=I Wish I Could Love You More
TTITLE2=Don't Know
TTITLE3=Now That You're Mine
TTITLE4=Meet Me In The Middle
EXTD=
EXTT0=
EXTT1=
EXTT2=
EXTT3=
EXTT4=
PLAYORDER=
